<?xml version="1.0" encoding="UTF-8" standalone="no"?>
<!-- https://pixabay.com/en/cow-herbivore-head-face-cattle-37806/ -->

<svg
   xmlns:dc="http://purl.org/dc/elements/1.1/"
   xmlns:cc="http://creativecommons.org/ns#"
   xmlns:rdf="http://www.w3.org/1999/02/22-rdf-syntax-ns#"
   xmlns:svg="http://www.w3.org/2000/svg"
   xmlns="http://www.w3.org/2000/svg"
   xmlns:sodipodi="http://sodipodi.sourceforge.net/DTD/sodipodi-0.dtd"
   xmlns:inkscape="http://www.inkscape.org/namespaces/inkscape"
   viewBox="0 0 48 48"
   id="svg2"
   version="1.1"
   inkscape:version="0.48.2 r9819"
   width="100%"
   height="100%"
   sodipodi:docname="steeriously.svg"
   inkscape:export-filename="C:\Users\markpy\Desktop\Programming\C++\Steeriously_0_2\steeriously.png"
   inkscape:export-xdpi="100"
   inkscape:export-ydpi="100">
  <metadata
     id="metadata35">
    <rdf:RDF>
      <cc:Work
         rdf:about="">
        <dc:format>image/svg+xml</dc:format>
        <dc:type
           rdf:resource="http://purl.org/dc/dcmitype/StillImage" />
        <dc:title></dc:title>
      </cc:Work>
    </rdf:RDF>
  </metadata>
  <sodipodi:namedview
     pagecolor="#ffffff"
     bordercolor="#666666"
     borderopacity="1"
     objecttolerance="10"
     gridtolerance="10"
     guidetolerance="10"
     inkscape:pageopacity="0"
     inkscape:pageshadow="2"
     inkscape:window-width="1768"
     inkscape:window-height="965"
     id="namedview33"
     showgrid="false"
     inkscape:zoom="4.9166667"
     inkscape:cx="36.878985"
     inkscape:cy="19.97175"
     inkscape:window-x="1271"
     inkscape:window-y="-9"
     inkscape:window-maximized="1"
     inkscape:current-layer="g11" />
  <defs
     id="defs4">
    <filter
       height="1.93921"
       id="filter3817"
       width="1.09798"
       x="-.04899"
       y="-.46961">
      <feGaussianBlur
         stdDeviation=".75171"
         id="feGaussianBlur7" />
    </filter>
  </defs>
  <path
     d="m42.92128,40.25032a18.41376,1.92086 0 1,1 -36.82751,0 18.41376,1.92086 0 1,1 36.82751,0z"
     filter="url(#filter3817)"
     opacity=".32479"
     transform="matrix(1,0,0,2.310345,0,-54.153549)"
     id="path9" />
  <g
     transform="matrix(.131494,0,0,.131494,-25.0335,-16.431346)"
     id="g11">
    <path
       d="m441.28693,134.22259c0,0 22.8464,24.98825-7.1395,54.26019s-27.1301-12.8511-27.1301-12.8511 5.7116-39.98119 34.2696-41.40909zm-134.28846,0c0,0-22.8464,24.98825 7.1395,54.26019s27.1301-12.8511 27.1301-12.8511-5.7116-39.98119-34.2696-41.40909z"
       id="path13"
       stroke-width="6"
       stroke="#888a85"
       fill-rule="evenodd"
       fill="#d3d7cf" />
    <path
       d="m309.78125,140.65625c-1.48171,2.107-3.50713,5.40404-4.59375,10.875-1.62825,8.19799-.71213,19.14858 13.125,32.65625 7.0156,6.84857 11.66701,8.56965 12.96875,8.625 .65087.02768.59412.0059.875-.21875s.81674-.87995 1.3125-2c1.96092-4.43017 1.81552-14.2167 1.8125-14.4375-.07306-.4775-1.42059-9.12767-5.8125-18.0625-4.09064-8.32195-10.04813-15.68279-19.6875-17.4375zm128.71875,0c-9.63775,1.75433-15.57241,9.1164-19.65625,17.4375-4.3846,8.93392-5.73981,17.58502-5.8125,18.0625-.00318.22085-.14287,10.00848 1.8125,14.4375 .49436,1.11976 1.03385,1.77682 1.3125,2s.19528.24634.84375.21875c1.29695-.05519 5.95277-1.77607 12.96875-8.625 13.83713-13.50767 14.75325-24.45826 13.125-32.65625-1.08662-5.47096-3.11204-8.768-4.59375-10.875z"
       id="path15"
       stroke-width="6"
       stroke="#fff"
       fill="none" />
    <path
       d="m339.8129,165.75901c-1.38083-.01767-2.78074.27883-4.09375.96875l-24,12.625c-4.20162,2.20774-5.80148,7.36088-3.59375,11.5625 .7214,1.37293 1.75336,2.47397 2.96875,3.25-4.89765,4.16812-9.18224,8.80473-12.71875,13.84375-3.99628-11.47099-30.9285-15.81598-61.5625-9.65625-31.6821,6.37048-43.39229,21.57375-40.90625,33.9375s18.22415,17.24548 49.90625,10.875c18.68662-3.75742 34.6036-10.58541 44-18.09375-1.82491,5.69163-2.8125,11.65868-2.8125,17.8125 0,7.60342 1.50782,14.94738 4.25,21.8125-13.40664,15.73805-21.375,35.39486-21.375,56.71875 0,51.62715 46.71135,93.53124 104.25,93.53125s104.21874-41.90409 104.21875-93.53125c0-21.3239-7.96835-40.9807-21.375-56.71875 2.74218-6.86512 4.25-14.20908 4.25-21.8125 0-5.45274-.74523-10.77662-2.1875-15.875 9.58767,6.72989 24.31621,12.72615 41.375,16.15625 31.6821,6.37048 47.38893,1.48876 49.875-10.875s-9.19289-27.56702-40.875-33.9375c-29.07311-5.84588-54.81708-2.22015-60.78125,7.96875-3.27715-4.3834-7.13506-8.4636-11.46875-12.15625 1.20526-.77512 2.22075-1.88592 2.9375-3.25 2.20774-4.20162.60787-9.35476-3.59375-11.5625l-24-12.625c-4.20162-2.20774-9.35476-.60787-11.5625,3.59375-.85462,1.62646-1.12379,3.40693-.90625,5.09375-8.18254-2.06947-16.88495-3.1875-25.90625-3.1875-9.03468,0-17.74279,1.11332-25.9375,3.1875 .21754-1.68682-.05163-3.46729-.90625-5.09375-1.51782-2.88862-4.43092-4.52363-7.46875-4.5625z"
       id="path17"
       stroke-width="6"
       stroke="#727272"
       fill="#eeeeec" />
    <path
       d="m339.75,171.75c-.47031-.00602-.86493.07892-1.25.28125l-24,12.625c-1.3536.71125-1.77544,2.11192-1.0625,3.46875 .23987.45651.53083.74899.875.96875 1.6027,1.02492 2.62446,2.74912 2.75387,4.64711s-.64886,3.74491-2.09762,4.97789c-4.54047,3.86415-8.46584,8.12834-11.6875,12.71875-1.29474,1.83406-3.50498,2.79197-5.7286,2.48276s-4.08866-1.83379-4.8339-3.95151c-.34897-1.00168-1.47035-2.43989-4.1875-3.90625s-6.81981-2.76269-11.875-3.5625c-10.11038-1.59962-23.9397-1.24038-38.65625,1.71875-15.07677,3.03157-24.89151,8.12667-30.34375,13.21875s-6.66542,9.72528-5.875,13.65625 2.76788,6.18908 9.53125,7.8125 17.95007,1.464 33.3125-1.625c17.95495-3.61029 33.23672-10.35329 41.4375-16.90625 2.06811-1.66477 4.98437-1.77264 7.16982-.26518s3.12051,4.27184 2.29893,6.79643c-1.64481,5.12993-2.53125,10.45687-2.53125,15.96875 0,6.8102 1.33604,13.39388 3.8125,19.59375 .83031,2.06891.44522,4.4276-1,6.125-12.56841,14.75406-19.9375,32.98334-19.9375,52.8125 0,48.00803 43.62446,87.53124 98.25,87.53125s98.21874-39.5208 98.21875-87.53125c0-19.82916-7.36908-38.05845-19.9375-52.8125-1.44522-1.6974-1.83031-4.05609-1-6.125 2.47645-6.19986 3.8125-12.78356 3.8125-19.59375 0-4.90605-.67693-9.68344-1.96875-14.25-.68154-2.4403.24311-5.04571 2.31052-6.51042s4.83202-1.47304 6.90823-.02083c8.59434,6.03265 22.73672,11.89222 39.125,15.1875 15.3628,3.08908 26.52722,3.24773 33.28125,1.625s8.73953-3.87513 9.53125-7.8125-.39992-8.56597-5.84375-13.65625-15.26735-10.18726-30.34375-13.21875c-13.96598-2.80821-27.10798-3.30267-37.0625-1.96875s-16.10625,4.97967-17.34375,7.09375c-1.01438,1.74221-2.83583,2.85861-4.84865,2.97183s-3.94798-.79187-5.15135-2.40933c-2.99415-4.00486-6.55157-7.76987-10.5625-11.1875-1.43612-1.2336-2.20586-3.07259-2.07666-4.96137s1.14219-3.60583 2.73291-4.63238c.30137-.19381.61981-.51433.875-1 .71293-1.3568.29108-2.75751-1.0625-3.46875l-24-12.625c-1.35683-.71294-2.75751-.29108-3.46875,1.0625-.25727.48962-.34998.99831-.28125,1.53125 .25541,1.96782-.47852,3.93466-1.96058,5.25414s-3.52061,1.82095-5.44567,1.33961c-7.70018-1.94747-15.91193-3-24.4375-3-8.54178,1e-005-16.75913,1.0486-24.46875,3-1.92506.48134-3.9636-.02013-5.44567-1.33961s-2.21599-3.28632-1.96058-5.25414c.06873-.53292-.024-1.04167-.28125-1.53125-.48107-.91555-1.2842-1.33179-2.21875-1.34375z"
       id="path19"
       stroke-width="6"
       stroke="#fff"
       fill="none" />
    <path
       d="m329.92342,321.00231c-36.67278,0-66.42084,24.95796-66.42084,55.69667s29.74806,55.66027 66.42084,55.66028c16.47036,0 31.54454-5.02247 43.15724-13.35119 11.61377,8.33212 26.68315,13.35118 43.15725,13.35119 36.67279,0 66.44802-24.92157 66.44802-55.66028s-29.77524-55.69666-66.44802-55.69667c-16.4741,0-31.54348,5.05546-43.15725,13.38757-11.6127-8.32872-26.68688-13.38756-43.15724-13.38757z"
       id="path21"
       stroke-width="6"
       stroke="#ff7e7e"
       fill="#ffbfbf" />
    <path
       d="m351.96915,222.32151c-14.58171,0-26.40624,11.82452-26.40625,26.40625s11.82453,26.4375 26.40625,26.4375c9.50368,0 17.84612-5.0242 22.5-12.5625 4.65388,7.5383 12.99633,12.5625 22.5,12.5625 14.58171,0 26.40624-11.8558 26.40625-26.4375s-11.82453-26.40624-26.40625-26.40625c-9.50368,0-17.84612,5.0242-22.5,12.5625-4.65388-7.5383-12.99633-12.56249-22.5-12.5625z"
       id="path23"
       stroke-width="6"
       stroke="#888a85"
       fill="#eeeeec" />
    <path
       d="m345.73477,358.57151c-8.78002,0-15.90625,7.12622-15.90625,15.90625s7.12621,15.90626 15.90625,15.90625 15.90625-7.12623 15.90625-15.90625-7.12624-15.90624-15.90625-15.90625zm57.46875,0c-8.78002,0-15.90624,7.12622-15.90625,15.90625s7.12622,15.90626 15.90625,15.90625 15.90626-7.12623 15.90625-15.90625-7.12623-15.90624-15.90625-15.90625z"
       id="path25"
       stroke-width="6"
       stroke="#000"
       fill="#2e3436" />
    <path
       d="m 357.896,258.56394 a 10.352275,9.6383247 0 0 1 -20.70455,0 10.352275,9.6383247 0 1 1 20.70455,0 z"
       id="path27"
       inkscape:connector-curvature="0"
       style="fill:#2e3436;stroke:#2e3436;stroke-width:6" />
    <path
       d="m 412.46921,244.1172 a 10.352275,9.6383247 0 0 1 -20.70455,0 10.352275,9.6383247 0 1 1 20.70455,0 z"
       id="path29"
       inkscape:connector-curvature="0"
       style="fill:#2e3436;stroke:#2e3436;stroke-width:6" />
    <path
       d="m329.9375,327c-33.95156-1e-005-60.4375,22.82204-60.4375,49.6875s26.48254,49.65624 60.4375,49.65625c15.25239,1e-005 29.11474-4.6583 39.65625-12.21875 2.09163-1.50195 4.90837-1.50195 7,0 10.54239,7.56349 24.39899,12.21874 39.65625,12.21875 33.95495,1e-005 60.4375-22.7908 60.4375-49.65625s-26.48595-49.68749-60.4375-49.6875c-15.24967-1e-005-29.10807,4.68238-39.65625,12.25-2.09163,1.50195-4.90837,1.50195-7,0-10.54728-7.5646-24.41143-12.24999-39.65625-12.25z"
       id="path31"
       stroke-width="6"
       stroke="#fff"
       fill="none"
       opacity=".76068" />
  </g>
</svg>
